<?xml version="1.0" encoding="utf-8"?>
<!-- Generator: Adobe Illustrator 23.0.1, SVG Export Plug-In . SVG Version: 6.00 Build 0)  -->
<svg version="1.1" id="Layer_1" xmlns="http://www.w3.org/2000/svg" xmlns:xlink="http://www.w3.org/1999/xlink" x="0px" y="0px"
	 viewBox="0 0 300 300" style="enable-background:new 0 0 300 300;" xml:space="preserve">
<style type="text/css">
	.st0{fill:#00A3E3;}
	.st1{fill:#EE3A33;}
	.st2{fill:#231F20;}
</style>
<path class="st0" d="M69,148.93c-1.44,0.12-2.86,0.48-4.16,0.82c-3-7.06-6.07-14.1-9.24-21.09c-2.19,7.33-3.96,14.8-5.5,22.3
	c-1.51-0.04-3.03-0.14-4.52,0.05c-1.43,0.12-2.91,0.48-4.28,0.71c-4.62-12.91-9.86-25.55-15.65-37.91c2.43-0.04,4.92-0.03,7.33-0.29
	c2.13-0.18,4.24-0.54,6.3-0.89c2.31,7.06,4.79,14.1,7.5,21.07c1.96-7.37,3.85-14.79,5.68-22.15c1.34,0,2.79,0.1,4.11-0.01
	c1.56-0.13,3.09-0.49,4.57-0.79c2.67,7.14,5.55,14.21,8.72,21.14c1.67-7.35,2.92-14.77,3.83-22.22c1.45,0.05,2.97,0.15,4.46,0.02
	c1.67-0.14,3.36-0.63,4.96-1c-3.33,13.43-6.6,26.86-9.82,40.28C71.9,148.91,70.43,148.81,69,148.93"/>
<path class="st0" d="M114.23,145.48c0.01-3.14,0.02-6.29-0.25-9.4l-0.72-8.11c-2.08,0.12-4.15,0.24-6.22,0.42
	c-1.9,0.16-3.79,0.39-5.68,0.61l0.71,8.05c0.28,3.12,0.79,6.22,1.35,9.31c-2.2,0.02-4.41-0.02-6.59,0.17
	c-2.13,0.18-4.24,0.59-6.35,0.95c-0.03-5.54-0.28-11.06-0.77-16.56l-0.4-4.48c-0.53-6.01-1.3-12-2.36-18.02
	c2.15,0.04,4.37,0.19,6.44,0.01c2.19-0.19,4.41-0.67,6.56-1.13c0,3.2,0.05,6.39,0.33,9.57l0.44,4.93c1.9-0.11,3.81-0.16,5.7-0.38
	c2.07-0.18,4.14-0.41,6.2-0.65l-0.39-4.42c-0.3-3.35-0.88-6.61-1.52-9.98c2.21,0.04,4.48,0.18,6.67,0.05
	c2.13-0.18,4.29-0.71,6.39-1.12c0.03,6.22,0.35,12.43,0.9,18.61l0.35,3.97c0.49,5.5,1.21,10.98,2.15,16.44
	c-2.14,0.01-4.29-0.03-6.42,0.15C118.56,144.65,116.39,145.07,114.23,145.48"/>
<path class="st0" d="M144.14,110.79c0.13,2.16,0.27,4.32,0.46,6.47l0.12,1.36l11.29-1.43c-0.06,1.26-0.18,2.64-0.06,3.89
	c0.11,1.25,0.47,2.59,0.7,3.94c-3.76,0.04-7.58,0.14-11.33,0.35l0.39,5c0.15,1.7,0.36,3.39,0.62,5.03
	c3.79-0.38,7.56-0.99,11.27-1.71c0,1.31-0.05,2.69,0.07,4.05c0.11,1.25,0.45,2.54,0.68,3.77c-4.79,0.3-9.58,0.54-14.3,0.95
	c-3.11,0.27-6.2,0.71-9.28,1.2c0.19-4.98-0.02-10-0.46-14.98l-0.73-8.28c-0.47-5.28-1.16-10.47-2.14-15.59
	c3.8-0.21,7.62-0.37,11.41-0.7c4.08-0.35,8.15-0.88,12.22-1.4c0,1.26-0.12,2.58,0,3.83c0.11,1.25,0.45,2.53,0.62,3.77
	c-3.18-0.01-6.37,0.04-9.53,0.31L144.14,110.79z"/>
<path class="st0" d="M174.18,107.11c0.05,1.25,0.16,2.5,0.27,3.75l0.6,6.75c3.89-0.57,5.73-2.1,5.31-6.12
	c-0.35-3.92-2.45-4.7-6.12-4.39L174.18,107.11z M190.82,138.48c-2.01,0.17-4.02,0.52-6.02,0.8c-2.49-4.64-5.72-8.94-8.92-13.11
	l0.21,2.32c0.34,3.85,0.91,7.69,1.6,11.46c-2.09,0.01-4.17-0.04-6.31,0.15c-2.07,0.18-4.12,0.58-6.12,0.98
	c0.05-6.57-0.35-13.06-0.93-19.63c-0.58-6.52-1.38-12.97-2.58-19.32c1.85-0.05,3.71-0.04,5.54-0.19c3.57-0.31,7.1-1.01,10.67-1.32
	c7.48-0.64,13.39,1.3,14.12,9.53c0.42,4.76-1.87,8.9-6.54,10.56c4.36,6.03,9.04,11.79,13.89,17.43c-2.83,0.08-5.73,0.04-8.55,0.28
	L190.82,138.48z"/>
<path class="st0" d="M211.74,104.96c0.14,2.16,0.26,4.32,0.46,6.47l0.12,1.36l11.3-1.43c-0.06,1.26-0.17,2.64-0.06,3.89
	c0.11,1.25,0.46,2.59,0.7,3.94c-3.77,0.04-7.58,0.14-11.34,0.35l0.39,5c0.15,1.7,0.36,3.4,0.62,5.03c3.79-0.38,7.56-0.99,11.27-1.71
	c0,1.31-0.05,2.69,0.06,4.05c0.11,1.25,0.46,2.54,0.68,3.77c-4.78,0.3-9.57,0.54-14.29,0.95c-3.11,0.27-6.2,0.71-9.29,1.2
	c0.2-4.99-0.02-9.99-0.46-14.98l-0.73-8.28c-0.47-5.28-1.16-10.47-2.14-15.59c3.81-0.21,7.62-0.37,11.41-0.7
	c4.09-0.35,8.15-0.88,12.22-1.4c0,1.26-0.12,2.58-0.01,3.83c0.11,1.25,0.46,2.53,0.63,3.77c-3.19-0.01-6.37,0.04-9.54,0.31
	L211.74,104.96z"/>
<path class="st0" d="M229.78,112.77l1.71-12.72c0.32-2.31,1.31-4.74,4.02-4.98c2.47-0.21,4.33,1.74,4.54,4.12
	c0.09,1.08-0.16,2.13-0.66,3.09l-6.32,11.63L229.78,112.77z"/>
<path class="st0" d="M246.98,132.32c0.37-3.69,0.68-7.38,1.05-11l3.05-0.26c1.11,3.9,2.79,6.56,7.33,6.17
	c2.59-0.22,4.92-1.4,4.66-4.29c-0.53-5.95-16.94-3.45-18.05-15.99c-0.76-8.56,5.61-13.17,13.61-13.86
	c4.03-0.35,7.51,0.38,11.19,2.01c-0.84,2.99-1.44,6.01-1.85,9.13l-2.65,0.23c-1.43-3.02-3.09-5.45-6.83-5.13
	c-2.07,0.18-4.35,1.29-4.14,3.67c0.48,5.33,17.43,3.07,18.57,15.94c0.83,9.36-6.41,13.98-15.04,14.72
	C254.15,133.99,250.5,133.5,246.98,132.32"/>
<path class="st1" d="M82.69,206.91c-1.75,0.15-3.48,0.57-5.07,0.97c-3.62-8.17-7.31-16.33-11.13-24.42
	c-2.71,8.52-4.9,17.19-6.81,25.91c-1.84-0.04-3.68-0.15-5.5,0.08c-1.75,0.15-3.55,0.57-5.22,0.85c-5.56-14.96-11.87-29.6-18.86-43.9
	c2.96-0.06,5.99-0.05,8.93-0.37c2.59-0.22,5.17-0.64,7.67-1.06c2.77,8.18,5.76,16.34,9.01,24.41c2.42-8.56,4.76-17.18,7.03-25.73
	c1.62-0.01,3.4,0.11,5.01-0.03c1.89-0.16,3.76-0.59,5.56-0.94c3.21,8.27,6.68,16.46,10.5,24.48c2.06-8.53,3.63-17.15,4.77-25.8
	c1.77,0.05,3.61,0.15,5.44,0c2.03-0.18,4.1-0.75,6.04-1.18c-4.12,15.6-8.17,31.19-12.16,46.78
	C86.21,206.87,84.44,206.76,82.69,206.91"/>
<path class="st1" d="M114.57,185.29l2.95-0.18l1.01-0.09l3.1-0.35c-1.36-2.9-2.8-5.8-4.32-8.61
	C116.31,179.09,115.4,182.19,114.57,185.29 M129.32,203.29c-1.68-3.83-3.29-7.67-4.91-11.5c-1.96,0.1-3.93,0.21-5.82,0.37
	c-1.96,0.17-3.91,0.47-5.8,0.7c-1.05,4.07-2.17,8.14-3.29,12.21c-1.41-0.01-2.9-0.08-4.37,0.05c-2.1,0.18-4.25,0.63-6.4,1.02
	c5.87-15.75,11.16-31.71,15.66-47.81c1.48,0,2.97,0.07,4.51-0.13c1.47-0.13,2.92-0.45,4.38-0.71c6.98,15.04,14.5,29.83,22.58,44.45
	c-2.96,0.12-5.91,0.18-8.86,0.43C134.41,202.58,131.82,202.94,129.32,203.29"/>
<path class="st1" d="M150.02,201.57c0.2-5.72-0.03-11.46-0.54-17.18l-0.76-9.34c-0.55-6.25-1.39-12.48-2.71-18.59
	c2.46-0.08,5-0.1,7.46-0.31c2.67-0.23,5.31-0.65,7.96-1.02c-0.09,4.65-0.03,9.28,0.38,13.89l1.67,18.02
	c0.15,1.64,0.29,3.29,0.5,4.92c4.62-0.46,9.21-1.19,13.8-2.05c-0.01,1.52-0.08,3.12-0.01,4.7c0.13,1.45,0.54,2.94,0.88,4.37
	c-5.82,0.37-11.66,0.67-17.4,1.17C157.47,200.46,153.7,200.99,150.02,201.57"/>
<path class="st1" d="M183.77,198.66c0.2-5.72-0.03-11.46-0.53-17.18l-0.76-9.35c-0.56-6.25-1.39-12.47-2.72-18.59
	c2.46-0.08,5.01-0.1,7.46-0.31c2.67-0.23,5.31-0.66,7.96-1.02c-0.08,4.65-0.03,9.28,0.39,13.89l1.67,18.02
	c0.15,1.64,0.29,3.29,0.5,4.92c4.62-0.46,9.22-1.19,13.8-2.05c0,1.52-0.08,3.12-0.01,4.7c0.13,1.45,0.54,2.94,0.88,4.37
	c-5.82,0.37-11.66,0.68-17.4,1.17C191.23,197.55,187.46,198.07,183.77,198.66"/>
<path class="st1" d="M235.08,176.53c0.52,5.86,1.25,11.69,2.12,17.52c-2.68,0.03-5.36,0-8.03,0.23c-2.52,0.22-5.02,0.7-7.45,1.11
	c-0.01-4.84-0.08-9.67-0.51-14.54c-0.15-1.64-0.36-3.28-0.59-4.98c-5.82-8.38-11.36-16.72-18.12-24.48
	c3.32-0.02,6.64,0.03,9.92-0.33c2.73-0.23,5.45-0.67,8.16-1.1c2.85,5.06,5.83,10.03,9.15,14.79c2.64-5.26,4.77-10.68,6.83-16.1
	c1.48,0.01,3.04,0.14,4.45,0.02c2.52-0.22,5.07-0.9,7.5-1.44c-5.17,8.59-9.89,17.42-13.66,26.62L235.08,176.53z"/>
<path class="st1" d="M258.92,185.88c-0.32-3.62,2.26-7.16,6.25-7.5c3.99-0.35,7.08,2.7,7.41,6.32c0.31,3.55-2.26,7.16-6.25,7.5
	C262.34,192.54,259.24,189.5,258.92,185.88 M268.21,169.57c1.47-0.13,3.78-1.12,5.08-1.56c-0.37,2.22-0.73,4.44-0.95,6.71
	c-1.7,0.81-3.48,1.36-5.3,1.52c-6.09,0.52-10.75-3.38-11.25-9.04c-0.64-7.24,7.56-11.06,7.2-15.07c-0.12-1.32-1.19-2.22-2.59-2.16
	c-2.45,0.21-3.49,2.82-4.17,4.73l-3.49-0.42c-0.22-2.43-0.49-4.73-1.05-7.07c2.96-2.44,6.07-3.97,10.06-4.31
	c7.15-0.62,12.89,2.86,13.51,9.83c0.82,9.27-8.64,12.34-8.32,15.96C266.99,169.41,267.44,169.64,268.21,169.57"/>
<path class="st2" d="M55.47,126.59l0.8,1.77c2.78,6.13,5.65,12.67,9,20.53c1.17-0.3,2.41-0.57,3.67-0.68c1.22-0.1,2.43-0.05,3.6,0
	l0.18,0.01c3.06-12.78,6.22-25.74,9.4-38.56c-1.27,0.31-2.58,0.62-3.9,0.74c-1.28,0.11-2.56,0.06-3.79,0.01l-0.09,0
	c-0.93,7.45-2.19,14.72-3.76,21.63l-0.48,2.1l-0.9-1.96c-2.94-6.44-5.81-13.37-8.52-20.6l-0.17,0.04c-1.25,0.26-2.55,0.53-3.87,0.64
	c-0.94,0.08-1.92,0.06-2.88,0.04l-0.73-0.01c-2.02,8.07-3.84,15.15-5.55,21.6l-0.57,2.16l-0.81-2.09
	c-2.51-6.47-4.91-13.19-7.31-20.51c-1.72,0.29-3.75,0.62-5.73,0.79l-0.78,0.08c-1.82,0.16-3.68,0.18-5.48,0.2h-0.01
	c5.58,11.99,10.63,24.23,15,36.39l0.7-0.13c0.99-0.19,2.02-0.39,3.04-0.48l0.49-0.05c1.12-0.1,2.24-0.06,3.34-0.03l0.17,0
	c1.67-8.09,3.43-15.22,5.39-21.77L55.47,126.59z M64.41,150.6l-0.25-0.58c-3.12-7.34-5.82-13.52-8.42-19.28
	c-1.77,6.15-3.39,12.83-4.93,20.36l-0.12,0.59l-0.61-0.01l-0.79-0.03c-1.26-0.04-2.44-0.08-3.62,0.07
	c-0.98,0.08-1.96,0.27-2.91,0.46c-0.45,0.09-0.9,0.17-1.34,0.25l-0.61,0.1l-0.21-0.57c-4.53-12.65-9.79-25.39-15.62-37.85l-0.47-1
	l2.25-0.03c2.03-0.02,4.13-0.05,6.13-0.27c2.19-0.19,4.44-0.58,6.25-0.88l0.62-0.1l0.19,0.59c2.2,6.74,4.39,12.96,6.67,18.93
	c1.58-6.01,3.26-12.57,5.11-19.96l0.14-0.54h0.57c0.44,0,0.88,0.01,1.33,0.02c0.91,0.02,1.86,0.04,2.72-0.03
	c1.24-0.1,2.49-0.37,3.7-0.62l0.78-0.16l0.62-0.13l0.22,0.58c2.49,6.67,5.1,13.08,7.79,19.09c1.38-6.43,2.51-13.15,3.34-20.01
	l0.08-0.65l0.67,0.02l0.77,0.03c1.19,0.05,2.42,0.09,3.61-0.01c1.24-0.11,2.53-0.42,3.77-0.72c0.36-0.09,0.72-0.18,1.08-0.26
	l1.15-0.27l-0.28,1.13c-3.32,13.38-6.62,26.93-9.82,40.27l-0.14,0.57l-0.59-0.02l-0.79-0.03c-1.13-0.05-2.29-0.1-3.41,0
	c-1.37,0.12-2.74,0.46-4.03,0.79L64.41,150.6z"/>
<path class="st2" d="M106.97,127.67c2.07-0.18,4.17-0.3,6.2-0.42l0.75-0.04l0.78,8.81c0.25,2.86,0.27,5.77,0.26,8.6
	c1.87-0.36,3.8-0.7,5.72-0.86c1.72-0.15,3.46-0.15,5.15-0.15l0.48,0c-0.88-5.18-1.56-10.45-2.02-15.67l-0.35-3.97
	c-0.54-6.08-0.84-12.06-0.89-17.79l-0.67,0.14c-1.61,0.33-3.28,0.68-4.94,0.82c-1.64,0.1-3.31,0.05-4.92,0l-0.93-0.03
	c0.55,2.91,1.08,5.99,1.37,9.18l0.46,5.12l-1.05,0.12c-1.92,0.22-3.91,0.44-5.88,0.61c-0.35,0.04-0.71,0.08-1.08,0.11
	c-1.06,0.09-2.13,0.14-3.16,0.19c-0.49,0.03-0.99,0.05-1.48,0.08l-0.71,0.04l-0.5-5.63c-0.27-3.05-0.33-6.08-0.33-8.74
	c-1.82,0.39-3.8,0.79-5.77,0.96c-1.61,0.14-3.31,0.08-4.95,0.03l-0.68-0.02c0.95,5.58,1.68,11.22,2.21,17.22l0.4,4.48
	c0.46,5.23,0.72,10.53,0.77,15.78l0.46-0.08c1.66-0.28,3.38-0.58,5.1-0.73c1.76-0.15,3.55-0.16,5.28-0.17h0.5
	c-0.46-2.58-0.94-5.53-1.2-8.54l-0.78-8.75l0.75-0.09C103.16,128.06,105.07,127.84,106.97,127.67 M114.09,144.78l0.14,0.71
	L114.09,144.78z M113.54,146.35l-0.04-0.95c0.01-3.05,0.02-6.2-0.25-9.26l-0.66-7.41c-1.81,0.1-3.67,0.22-5.5,0.38
	c-1.65,0.14-3.32,0.33-4.96,0.52l0.65,7.36c0.29,3.28,0.84,6.52,1.34,9.25l0.15,0.84l-0.86,0.01c-0.46,0-0.91,0-1.37,0.01
	c-1.7,0-3.46,0.01-5.16,0.16c-1.66,0.14-3.35,0.43-4.98,0.72c-0.44,0.07-0.88,0.15-1.31,0.22l-0.85,0.14l0-0.85
	c-0.03-5.48-0.29-11.03-0.77-16.5l-0.4-4.48c-0.55-6.27-1.32-12.14-2.34-17.97l-0.15-0.86l0.88,0.02c0.53,0.01,1.06,0.03,1.58,0.04
	c1.6,0.05,3.25,0.11,4.78-0.03c2.2-0.19,4.47-0.68,6.47-1.12l0.89-0.19l0,0.9c0,2.83,0.03,6.17,0.33,9.51l0.38,4.24l0.79-0.04
	c1.38-0.07,2.79-0.14,4.17-0.3c1.84-0.16,3.7-0.36,5.5-0.57l-0.33-3.73c-0.31-3.44-0.91-6.78-1.52-9.91l-0.17-0.86l0.9,0.01
	c0.61,0.01,1.22,0.03,1.84,0.05c1.58,0.05,3.22,0.1,4.77,0.01c1.55-0.13,3.18-0.47,4.75-0.8c0.52-0.11,1.03-0.21,1.55-0.31
	l0.86-0.17l0,0.87c0.03,5.96,0.34,12.2,0.9,18.55l0.35,3.97c0.49,5.46,1.21,10.97,2.15,16.38l0.14,0.83l-0.85,0.01
	c-0.45,0-0.9,0-1.34,0c-1.66,0-3.37,0-5.02,0.15c-2.13,0.18-4.3,0.6-6.4,1L113.54,146.35z"/>
<path class="st2" d="M132.31,105.47c0.87,4.73,1.53,9.6,1.99,14.85l0.73,8.28c0.46,5.2,0.63,9.85,0.5,14.2
	c2.41-0.37,5.4-0.8,8.46-1.07c3.52-0.3,7.14-0.52,10.64-0.73c0.95-0.05,1.9-0.11,2.85-0.17l-0.08-0.39
	c-0.18-0.87-0.37-1.76-0.45-2.66c-0.09-1.06-0.09-2.11-0.08-3.13v-0.12c-3.81,0.72-7.24,1.23-10.46,1.56l-0.68,0.07l-0.11-0.67
	c-0.26-1.65-0.48-3.36-0.63-5.08l-0.44-5.73l0.74-0.04c3.21-0.18,6.74-0.3,10.5-0.34l-0.13-0.62c-0.17-0.84-0.35-1.71-0.43-2.55
	c-0.09-1.02-0.04-2.09,0.02-3.13l-11.18,1.42l-0.19-2.11c-0.19-2.11-0.32-4.19-0.46-6.49l-0.04-0.7l2.72-0.23
	c3.05-0.26,6.09-0.31,8.75-0.32l-0.14-0.76c-0.14-0.73-0.28-1.48-0.35-2.23c-0.08-0.88-0.05-1.79-0.03-2.67l0.01-0.41
	c-3.75,0.48-7.6,0.96-11.41,1.29c-2.86,0.24-5.76,0.4-8.58,0.54C133.66,105.4,132.98,105.43,132.31,105.47 M134.01,144.5l0.03-0.88
	c0.18-4.54,0.03-9.41-0.46-14.9l-0.73-8.28c-0.49-5.51-1.18-10.58-2.13-15.52l-0.15-0.8l0.82-0.04c0.96-0.06,1.91-0.1,2.87-0.15
	c2.8-0.15,5.69-0.3,8.52-0.54c4.07-0.35,8.2-0.88,12.19-1.39l0.82-0.11l0,0.82c0,0.41-0.01,0.84-0.03,1.26
	c-0.03,0.84-0.05,1.7,0.02,2.5c0.06,0.68,0.2,1.39,0.33,2.09c0.1,0.54,0.21,1.11,0.28,1.66l0.11,0.81l-0.83,0
	c-2.82-0.01-6.14,0.02-9.47,0.31l-1.31,0.11c0.12,2.02,0.24,3.88,0.41,5.76l0.05,0.62l11.4-1.44l-0.04,0.85l-0.04,0.68
	c-0.06,1.05-0.12,2.14-0.03,3.11c0.06,0.75,0.23,1.55,0.4,2.39c0.1,0.49,0.21,0.99,0.29,1.49l0.14,0.83l-0.85,0.01
	c-3.77,0.04-7.31,0.14-10.55,0.31l0.33,4.27c0.13,1.44,0.3,2.89,0.51,4.3c3.22-0.35,6.67-0.89,10.51-1.63l0.86-0.17l0,0.87
	c0,0.33,0,0.66,0,1c-0.01,0.98-0.01,2.01,0.08,2.99c0.07,0.81,0.25,1.66,0.43,2.49c0.09,0.41,0.17,0.81,0.25,1.21l0.14,0.79
	l-0.81,0.05c-1.23,0.08-2.46,0.15-3.68,0.22c-3.49,0.21-7.1,0.42-10.6,0.72c-3.4,0.29-6.72,0.79-9.23,1.19L134.01,144.5z"/>
<path class="st2" d="M174.95,107.78c0.06,1.01,0.15,2.03,0.23,3.02l0.53,5.98c3.22-0.63,4.26-2.06,3.93-5.2
	C179.38,108.59,178.22,107.62,174.95,107.78 M174.39,118.43l-0.67-7.51c-0.11-1.24-0.22-2.51-0.27-3.78l-0.03-0.68l0.74-0.06
	c3.34-0.29,6.48,0.12,6.92,5.04c0.43,4.16-1.34,6.22-5.93,6.89L174.39,118.43z M162.62,102.83c1.02,5.61,1.82,11.69,2.43,18.56
	c0.66,7.41,0.95,13.26,0.94,18.82c1.67-0.33,3.49-0.66,5.32-0.82c1.73-0.15,3.43-0.15,5.08-0.15h0.43
	c-0.68-3.89-1.16-7.39-1.46-10.68l-0.43-4.81l1.53,1.99c3.21,4.19,6.3,8.32,8.74,12.77c0.33-0.05,0.66-0.1,0.98-0.15
	c1.39-0.21,2.83-0.43,4.26-0.56l0.05-0.07l0.31-0.03c2.06-0.18,4.17-0.21,6.22-0.24l0.86-0.01c-5.01-5.88-9.26-11.23-12.95-16.33
	l-0.56-0.77l0.9-0.32c4.21-1.49,6.48-5.17,6.06-9.82c-0.6-6.79-4.84-9.61-13.33-8.87c-1.76,0.15-3.55,0.41-5.29,0.66
	c-1.75,0.25-3.57,0.51-5.38,0.67c-1.4,0.12-2.82,0.14-4.2,0.17L162.62,102.83 M164.52,141.96l0.01-0.89
	c0.04-5.77-0.24-11.81-0.93-19.57c-0.63-7.16-1.47-13.46-2.57-19.25l-0.15-0.82l0.85-0.03c0.46-0.01,0.93-0.02,1.4-0.03
	c1.35-0.02,2.75-0.05,4.1-0.16c1.76-0.15,3.56-0.41,5.29-0.66c1.76-0.25,3.57-0.51,5.37-0.66c9.22-0.8,14.24,2.63,14.91,10.18
	c0.44,4.93-1.89,9.04-6.14,10.95c3.78,5.17,8.14,10.63,13.32,16.65l0.98,1.14l-1.52,0.04c-0.79,0.02-1.59,0.03-2.4,0.04
	c-1.91,0.03-3.89,0.06-5.8,0.21l-0.05,0.06l-0.32,0.03c-1.49,0.13-3.01,0.36-4.48,0.58c-0.5,0.08-1,0.15-1.5,0.22l-0.51,0.08
	l-0.24-0.45c-2.05-3.81-4.61-7.41-7.34-11.01c0.31,3.44,0.82,7.11,1.57,11.22l0.15,0.84l-0.86,0c-0.43,0-0.86,0-1.3,0
	c-1.62,0-3.29,0-4.95,0.14c-2.07,0.18-4.17,0.6-6.03,0.97L164.52,141.96z"/>
<path class="st2" d="M199.9,99.64c0.87,4.72,1.52,9.59,1.99,14.86l0.73,8.28c0.46,5.21,0.62,9.87,0.49,14.2
	c2.41-0.37,5.41-0.8,8.46-1.07c3.52-0.31,7.14-0.52,10.64-0.73c0.95-0.05,1.89-0.11,2.84-0.17l-0.09-0.42
	c-0.18-0.85-0.37-1.74-0.45-2.62c-0.1-1.1-0.09-2.19-0.07-3.24c-3.81,0.72-7.24,1.23-10.46,1.56l-0.68,0.07l-0.11-0.67
	c-0.26-1.6-0.47-3.31-0.63-5.08l-0.45-5.73l0.74-0.04c3.25-0.18,6.7-0.3,10.5-0.34l-0.11-0.52c-0.18-0.88-0.37-1.79-0.44-2.65
	c-0.09-1.02-0.04-2.09,0.01-3.13l-11.18,1.42l-0.18-2.11c-0.17-1.88-0.29-3.8-0.41-5.65l-0.1-1.54l2.72-0.23
	c3.04-0.26,6.09-0.31,8.75-0.32l-0.14-0.72c-0.14-0.74-0.3-1.51-0.36-2.27c-0.08-0.89-0.05-1.8-0.02-2.68l0.01-0.4
	c-3.76,0.48-7.6,0.96-11.41,1.29c-2.86,0.24-5.76,0.4-8.57,0.54C201.26,99.57,200.58,99.6,199.9,99.64 M201.6,138.67l0.04-0.88
	c0.18-4.52,0.03-9.39-0.46-14.9l-0.74-8.28c-0.49-5.52-1.18-10.59-2.12-15.52l-0.15-0.8l0.83-0.05c0.95-0.05,1.91-0.1,2.87-0.15
	c2.8-0.14,5.69-0.3,8.52-0.54c4.07-0.35,8.19-0.88,12.17-1.39l0.82-0.11l0.02,0.82c0,0.41-0.01,0.84-0.03,1.26
	c-0.03,0.84-0.05,1.71,0.02,2.51c0.06,0.69,0.2,1.42,0.34,2.12c0.1,0.53,0.21,1.08,0.28,1.62l0.12,0.81h-0.84
	c-2.82-0.01-6.16,0.02-9.47,0.31l-1.31,0.11l0.01,0.14c0.12,1.84,0.23,3.75,0.4,5.61l0.05,0.62l11.41-1.44l-0.08,1.44
	c-0.06,1.08-0.12,2.2-0.03,3.21c0.07,0.79,0.24,1.62,0.42,2.5c0.09,0.46,0.19,0.92,0.27,1.38l0.14,0.83l-0.86,0.01
	c-3.83,0.04-7.3,0.14-10.56,0.31l0.33,4.26c0.13,1.49,0.3,2.93,0.51,4.3c3.22-0.35,6.67-0.89,10.51-1.63l0.87-0.17l0,0.88
	l-0.01,0.89c-0.01,1.02-0.02,2.08,0.07,3.1c0.07,0.8,0.25,1.64,0.42,2.46c0.09,0.42,0.18,0.84,0.25,1.25l0.14,0.79l-0.81,0.05
	c-1.22,0.08-2.45,0.15-3.67,0.22c-3.49,0.21-7.11,0.42-10.6,0.72c-3.39,0.29-6.72,0.79-9.24,1.19L201.6,138.67z"/>
<path class="st2" d="M230.58,112.29l2.15,0.75l6.03-11.09c0.45-0.88,0.65-1.79,0.57-2.68c-0.16-1.83-1.53-3.66-3.75-3.47
	c-1.85,0.16-2.99,1.63-3.36,4.36L230.58,112.29z M233.42,114.8l-4.44-1.54l1.79-13.3c0.6-4.34,2.88-5.44,4.68-5.6
	c2.73-0.23,5.07,1.86,5.32,4.78c0.1,1.17-0.14,2.34-0.73,3.47L233.42,114.8z"/>
<path class="st2" d="M247.76,131.82c3.32,1.04,6.7,1.42,10.06,1.13c14.37-1.24,14.64-10.99,14.37-13.95
	c-0.66-7.37-6.88-9.49-11.89-11.19c-3.46-1.18-6.46-2.2-6.69-4.75c-0.24-2.77,2.23-4.23,4.8-4.45c4.14-0.36,5.99,2.35,7.33,5.08
	l1.56-0.14c0.4-2.82,0.93-5.47,1.63-8.06c-3.54-1.48-6.73-2.01-10.26-1.7c-6.77,0.59-13.72,4.33-12.95,13.09
	c0.62,6.96,6.19,8.95,11.11,10.72c3.59,1.28,6.68,2.39,6.94,5.27c0.25,2.86-1.74,4.75-5.32,5.06c-5.05,0.44-6.89-2.75-7.93-6.12
	l-1.85,0.16c-0.18,1.75-0.34,3.5-0.5,5.27C248.06,128.77,247.91,130.29,247.76,131.82 M257.95,134.38
	c-3.74,0.32-7.51-0.14-11.2-1.38l-0.55-0.18l0.06-0.57c0.17-1.71,0.33-3.43,0.49-5.14c0.18-1.97,0.36-3.93,0.56-5.87l0.06-0.59
	l4.25-0.37l0.16,0.57c1.06,3.75,2.52,5.99,6.57,5.65c1.95-0.17,4.23-0.91,4-3.51c-0.18-1.98-2.74-2.89-5.99-4.05
	c-5.06-1.81-11.36-4.06-12.06-11.94c-0.72-8.08,4.88-13.83,14.27-14.64c3.97-0.34,7.54,0.3,11.55,2.07l0.57,0.25l-0.17,0.59
	c-0.81,2.89-1.41,5.84-1.83,9.03l-0.08,0.57l-3.74,0.32l-0.22-0.45c-1.51-3.19-2.99-4.98-6.11-4.71c-0.38,0.03-3.7,0.39-3.48,2.89
	c0.14,1.62,2.73,2.5,5.71,3.52c5.12,1.74,12.13,4.13,12.86,12.42C274.56,129.23,266.14,133.67,257.95,134.38"/>
<path class="st2" d="M66.35,181.47l0.8,1.68c3.34,7.06,6.8,14.66,10.89,23.88c1.46-0.36,3-0.7,4.58-0.84
	c1.49-0.13,2.98-0.07,4.41-0.02l0.31,0.01c3.86-15.13,7.8-30.28,11.71-45.07l-0.21,0.05c-1.55,0.36-3.15,0.74-4.76,0.88
	c-1.53,0.13-3.07,0.08-4.55,0.04l-0.32-0.01c-1.16,8.67-2.74,17.15-4.7,25.22l-0.49,2l-0.88-1.86c-3.57-7.5-7.03-15.55-10.3-23.96
	l-0.4,0.08c-1.51,0.3-3.06,0.62-4.64,0.76c-1.14,0.1-2.34,0.07-3.5,0.05c-0.34-0.01-0.68-0.01-1.01-0.02
	c-2.52,9.44-4.77,17.69-6.89,25.2l-0.58,2.05l-0.8-1.98c-3.03-7.52-5.93-15.33-8.83-23.87c-2.2,0.36-4.65,0.75-7.12,0.96
	c-0.31,0.04-0.64,0.07-0.97,0.1c-2.18,0.19-4.42,0.22-6.58,0.26l-0.3,0.01c6.78,13.96,12.89,28.21,18.19,42.39
	c0.33-0.06,0.67-0.13,1.02-0.19c1.2-0.22,2.43-0.46,3.67-0.56l0.57-0.06c1.37-0.12,2.76-0.08,4.09-0.04l0.31,0.01
	c2.08-9.44,4.27-17.75,6.69-25.39L66.35,181.47z M77.2,208.73l-0.25-0.56c-3.86-8.72-7.17-16-10.33-22.72
	c-2.24,7.27-4.28,15.16-6.23,24.06l-0.13,0.58l-0.6-0.01l-0.92-0.02c-1.48-0.04-3.01-0.09-4.47,0.09c-1.18,0.1-2.38,0.33-3.54,0.55
	c-0.55,0.1-1.11,0.21-1.64,0.3l-0.6,0.1l-0.21-0.56c-5.45-14.67-11.79-29.42-18.83-43.84l-0.49-1l1.13-0.02
	c0.48-0.01,0.95-0.02,1.43-0.03c2.46-0.04,5-0.08,7.43-0.35c2.66-0.23,5.3-0.67,7.63-1.05l0.61-0.1l0.2,0.58
	c2.71,7.99,5.4,15.33,8.2,22.38c1.99-7.1,4.11-14.86,6.45-23.66l0.14-0.53l0.56,0c0.52,0,1.06,0.01,1.6,0.02
	c1.12,0.02,2.29,0.04,3.35-0.05c1.5-0.13,3.01-0.43,4.48-0.73c0.34-0.07,0.67-0.14,1-0.2l0.6-0.12L74,162.4
	c3.05,7.88,6.27,15.45,9.59,22.54c1.77-7.61,3.21-15.57,4.28-23.7l0.08-0.64l0.66,0.02c0.32,0.01,0.65,0.02,0.98,0.03
	c1.44,0.05,2.92,0.09,4.37-0.03c1.5-0.13,3.05-0.49,4.55-0.85c0.47-0.11,0.94-0.22,1.39-0.32l1.16-0.26l-0.3,1.14
	c-4.05,15.33-8.14,31.07-12.15,46.77l-0.14,0.56l-0.58-0.02l-0.91-0.03c-1.39-0.05-2.83-0.1-4.23,0.01
	c-1.69,0.15-3.37,0.55-4.95,0.95L77.2,208.73z"/>
<path class="st2" d="M115.54,184.51l1.94-0.12l0.99-0.09l2.08-0.23c-1.02-2.15-2.05-4.21-3.07-6.16
	C116.82,180.01,116.17,182.22,115.54,184.51 M117.59,185.83l-3.97,0.24l0.26-0.96c0.88-3.28,1.8-6.4,2.75-9.26l0.53-1.6l0.8,1.49
	c1.44,2.67,2.91,5.58,4.34,8.65l0.42,0.9l-4.11,0.46L117.59,185.83z M114.94,159.04c-4.18,14.89-9.26,30.4-15.1,46.15l0.06-0.01
	c1.7-0.31,3.45-0.64,5.16-0.78c1.16-0.1,2.32-0.08,3.43-0.06l0.45,0.01c1.05-3.83,2.14-7.79,3.14-11.67l0.12-0.48l0.49-0.06
	c0.6-0.07,1.2-0.15,1.81-0.23c1.31-0.17,2.66-0.35,4.01-0.46c1.96-0.17,4.03-0.28,5.85-0.37l0.52-0.03l0.22,0.52
	c1.51,3.59,3.07,7.29,4.66,10.94c2.24-0.31,4.73-0.64,7.17-0.86c2.2-0.19,4.44-0.27,6.6-0.35c0.37-0.01,0.75-0.03,1.12-0.04
	c-7.79-14.17-15.13-28.62-21.81-42.97l-0.54,0.1c-1.09,0.21-2.22,0.42-3.35,0.52l-0.63,0.07c-1.06,0.09-2.1,0.08-3.11,0.07
	L114.94,159.04 M97.6,207.05l0.44-1.18c6.08-16.3,11.34-32.37,15.64-47.75l0.15-0.53l0.56,0l0.85,0.01
	c1.17,0.01,2.37,0.03,3.56-0.13c1.09-0.09,2.13-0.29,3.23-0.5c0.37-0.07,0.74-0.14,1.12-0.21l0.55-0.1l0.23,0.5
	c6.89,14.83,14.48,29.77,22.56,44.4l0.56,1.01l-1.17,0.05c-0.77,0.03-1.53,0.06-2.3,0.09c-2.14,0.08-4.36,0.15-6.53,0.34
	c-2.6,0.23-5.28,0.59-7.64,0.92l-0.55,0.08l-0.22-0.5c-1.61-3.68-3.19-7.42-4.71-11.05c-1.68,0.09-3.53,0.19-5.29,0.35
	c-1.32,0.11-2.65,0.29-3.94,0.46c-0.45,0.06-0.89,0.12-1.33,0.17c-0.99,3.82-2.06,7.69-3.09,11.44l-0.23,0.85l-0.56,0
	c-0.34,0-0.68-0.01-1.02-0.01c-1.08-0.02-2.2-0.04-3.28,0.06c-1.64,0.14-3.28,0.44-5.01,0.76c-0.44,0.08-0.88,0.16-1.32,0.24
	L97.6,207.05z"/>
<path class="st2" d="M146.9,157.14c1.12,5.39,1.96,11.24,2.54,17.84l0.76,9.35c0.52,5.88,0.71,11.25,0.57,16.4
	c4.02-0.62,7.35-1.04,10.42-1.3c4.33-0.37,8.78-0.64,13.09-0.9c1.16-0.07,2.31-0.14,3.47-0.21c-0.29-1.19-0.59-2.42-0.7-3.64
	c-0.05-1.2-0.04-2.38-0.01-3.52l0.01-0.39c-4.87,0.9-9.02,1.5-12.98,1.9l-0.71,0.07l-0.09-0.69c-0.22-1.65-0.36-3.33-0.51-4.96
	l-1.67-18.01c-0.35-3.92-0.48-8.1-0.4-13.13c-0.36,0.05-0.73,0.1-1.09,0.15c-1.98,0.28-4.03,0.58-6.07,0.75
	c-1.9,0.16-3.86,0.21-5.76,0.26L146.9,157.14 M149.26,202.42l0.03-0.87c0.19-5.35,0.01-10.95-0.53-17.1l-0.76-9.35
	c-0.61-6.88-1.49-12.93-2.69-18.5l-0.18-0.84l0.87-0.03c0.58-0.02,1.16-0.04,1.74-0.05c1.87-0.05,3.81-0.1,5.67-0.26
	c2-0.17,4.03-0.46,5.99-0.74c0.64-0.09,1.29-0.18,1.94-0.27l0.85-0.12l-0.02,0.84c-0.1,5.35,0.02,9.74,0.38,13.81l1.67,18.02
	c0.12,1.38,0.25,2.8,0.41,4.2c3.94-0.42,8.11-1.05,13.02-1.97l0.87-0.16l-0.01,0.88c0,0.42-0.01,0.84-0.02,1.27
	c-0.02,1.11-0.04,2.27,0.01,3.39c0.1,1.14,0.4,2.37,0.7,3.56l0.36,1.51l-0.86,0.05c-1.44,0.09-2.89,0.18-4.33,0.27
	c-4.3,0.26-8.74,0.53-13.05,0.9c-3.25,0.28-6.8,0.73-11.19,1.42L149.26,202.42z"/>
<path class="st2" d="M180.65,154.23c1.13,5.42,1.96,11.26,2.55,17.84l0.76,9.35c0.52,5.87,0.71,11.24,0.56,16.4
	c4.03-0.62,7.36-1.04,10.42-1.3c4.33-0.37,8.77-0.64,13.08-0.9c1.16-0.07,2.32-0.14,3.48-0.21l-0.01-0.03
	c-0.29-1.18-0.58-2.4-0.69-3.61c-0.05-1.13-0.03-2.24-0.01-3.31l0.01-0.59c-4.81,0.88-9.07,1.5-12.99,1.9l-0.7,0.07l-0.09-0.69
	c-0.21-1.65-0.36-3.33-0.51-4.96l-1.67-18.01c-0.34-3.81-0.46-8-0.4-13.13c-0.36,0.05-0.73,0.1-1.09,0.15
	c-1.98,0.28-4.03,0.58-6.07,0.75c-1.9,0.16-3.86,0.21-5.76,0.26L180.65,154.23 M183.01,199.5l0.03-0.87
	c0.19-5.37,0.01-10.96-0.53-17.1l-0.76-9.35c-0.61-6.85-1.49-12.91-2.7-18.5l-0.18-0.84l0.87-0.03c0.58-0.02,1.16-0.04,1.74-0.05
	c1.88-0.05,3.82-0.1,5.67-0.26c2-0.17,4.02-0.46,5.98-0.74c0.64-0.09,1.29-0.18,1.94-0.27l0.84-0.12l-0.01,0.84
	c-0.09,5.45,0.03,9.84,0.38,13.81l1.67,18.02c0.12,1.38,0.25,2.8,0.42,4.2c3.92-0.42,8.19-1.06,13.02-1.97l0.86-0.16v0.87
	c0,0.49-0.01,0.98-0.02,1.48c-0.01,1.05-0.04,2.13,0.01,3.19c0.09,1.07,0.38,2.24,0.65,3.37l0.21,0.86l0.19,0.82l-0.85,0.05
	c-1.45,0.09-2.9,0.18-4.34,0.27c-4.29,0.26-8.73,0.53-13.04,0.9c-3.25,0.28-6.8,0.73-11.19,1.43L183.01,199.5z"/>
<path class="st2" d="M229.11,193.56c2.16-0.19,4.36-0.2,6.48-0.22l0.77,0c-0.88-5.99-1.54-11.48-2.01-16.74l-0.25-2.87l0.06-0.16
	c3.22-7.86,7.43-16.14,12.85-25.28c-1.94,0.45-3.94,0.9-5.95,1.08c-0.98,0.08-2.03,0.05-3.05,0.02l-0.96-0.03
	c-1.85,4.85-4.03,10.41-6.68,15.69l-0.55,1.09l-0.7-1c-2.83-4.05-5.67-8.64-8.94-14.41c-2.52,0.4-5.12,0.8-7.71,1.03l-0.89,0.09
	c-2.51,0.22-5.06,0.23-7.53,0.24c5.41,6.38,10.14,13.22,14.72,19.85c0.81,1.17,1.62,2.34,2.44,3.52l0.1,0.14l0.03,0.17
	c0.24,1.86,0.44,3.41,0.59,5.02c0.41,4.69,0.5,9.36,0.52,13.75l0.5-0.09C224.95,194.1,227.02,193.74,229.11,193.56 M221,196.23
	v-0.85c-0.01-4.6-0.07-9.53-0.51-14.48c-0.14-1.53-0.32-3.02-0.56-4.79c-0.78-1.13-1.56-2.25-2.34-3.38
	c-5.07-7.33-9.85-14.25-15.64-20.9l-1.02-1.18l2.96-0.01c2.79-0.01,5.66-0.02,8.46-0.32c2.72-0.23,5.46-0.67,8.11-1.1l0.5-0.08
	l0.26,0.44c3.07,5.45,5.76,9.84,8.4,13.71c2.46-5.07,4.51-10.34,6.26-14.93l0.18-0.47h0.51c0.5,0,1,0.02,1.51,0.04
	c0.97,0.03,1.98,0.06,2.87-0.01c1.96-0.17,3.97-0.64,5.91-1.09c0.5-0.12,0.99-0.23,1.48-0.34l1.65-0.37l-0.86,1.43
	c-5.76,9.59-10.2,18.21-13.55,26.37l0.22,2.52c0.49,5.48,1.18,11.19,2.12,17.47l0.12,0.81l-0.83,0.01c-0.54,0-1.07,0.01-1.61,0.01
	c-2.1,0.01-4.26,0.03-6.36,0.21c-2.03,0.17-4.07,0.53-6.04,0.86c-0.45,0.08-0.9,0.16-1.35,0.23L221,196.23z"/>
<path class="st2" d="M260.33,149.25c1.82-0.07,3.23,1.11,3.38,2.81c0.18,2.01-1.31,3.78-3.03,5.83c-2.12,2.52-4.51,5.38-4.17,9.24
	c0.48,5.34,4.87,8.87,10.46,8.39c1.51-0.13,3.08-0.56,4.68-1.28c0.19-1.76,0.45-3.5,0.72-5.13c-1.31,0.49-2.91,1.07-4.1,1.18
	c-1.73,0.15-2.02-1.02-2.07-1.53c-0.15-1.73,1.33-3.19,3.04-4.88c2.56-2.54,5.76-5.7,5.28-11.08c-0.55-6.2-5.54-9.8-12.71-9.18
	c-3.45,0.3-6.34,1.49-9.31,3.87c0.48,2.16,0.73,4.22,0.91,6.15l2.33,0.28C256.39,152.13,257.59,149.49,260.33,149.25 M267.1,176.95
	c-6.43,0.55-11.49-3.52-12.04-9.69c-0.4-4.44,2.32-7.68,4.5-10.27c1.52-1.81,2.83-3.37,2.71-4.79c-0.08-0.94-0.82-1.55-1.84-1.51
	c-1.9,0.17-2.81,2.28-3.51,4.25l-0.19,0.55l-4.66-0.57l-0.05-0.58c-0.19-2.17-0.45-4.52-1.03-6.97l-0.1-0.43l0.34-0.28
	c3.3-2.72,6.62-4.15,10.47-4.48c7.93-0.68,13.68,3.53,14.29,10.49c0.54,6.04-3.07,9.61-5.7,12.22c-1.46,1.44-2.71,2.68-2.62,3.74
	l0.05,0.2c0,0,0.1,0.06,0.44,0.03c1.02-0.09,2.56-0.66,3.8-1.12c0.41-0.15,0.79-0.3,1.11-0.4l1.15-0.39l-0.19,1.18
	c-0.34,2.05-0.72,4.37-0.95,6.66l-0.04,0.4l-0.37,0.18C270.77,176.26,268.9,176.79,267.1,176.95 M265.24,179.09
	c-3.39,0.29-5.89,3.31-5.59,6.72c0.34,3.88,3.63,5.92,6.62,5.67c2.95-0.26,5.93-2.9,5.59-6.72
	C271.51,180.89,268.22,178.84,265.24,179.09 M266.39,192.91c-4.15,0.36-7.82-2.77-8.19-6.97c-0.37-4.2,2.73-7.91,6.92-8.28
	c4.15-0.36,7.82,2.77,8.19,6.97C273.68,188.84,270.58,192.55,266.39,192.91"/>
</svg>
